<svg id="my-svg" width="100%" xmlns="http://www.w3.org/2000/svg" xmlns:xlink="http://www.w3.org/1999/xlink" class="flowchart" style="max-width: 1248.86px; background-color: white;" viewBox="0 0 1248.859375 134" role="graphics-document document" aria-roledescription="flowchart-v2"><style>#my-svg{font-size:13px;fill:#2D3B48;}@keyframes edge-animation-frame{from{stroke-dashoffset:0;}}@keyframes dash{to{stroke-dashoffset:0;}}#my-svg .edge-animation-slow{stroke-dasharray:9,5!important;stroke-dashoffset:900;animation:dash 50s linear infinite;stroke-linecap:round;}#my-svg .edge-animation-fast{stroke-dasharray:9,5!important;stroke-dashoffset:900;animation:dash 20s linear infinite;stroke-linecap:round;}#my-svg .error-icon{fill:hsl(30, 28.5714285714%, 99.5098039216%);}#my-svg .error-text{fill:rgb(0.8928571428, 1.2499999999, 1.607142857);stroke:rgb(0.8928571428, 1.2499999999, 1.607142857);}#my-svg .edge-thickness-normal{stroke-width:1px;}#my-svg .edge-thickness-thick{stroke-width:3.5px;}#my-svg .edge-pattern-solid{stroke-dasharray:0;}#my-svg .edge-thickness-invisible{stroke-width:0;fill:none;}#my-svg .edge-pattern-dashed{stroke-dasharray:3;}#my-svg .edge-pattern-dotted{stroke-dasharray:2;}#my-svg .marker{fill:#8A94A6;stroke:#8A94A6;}#my-svg .marker.cross{stroke:#8A94A6;}#my-svg svg{font-size:13px;}#my-svg p{margin:0;}#my-svg .label{color:#2D3B48;}#my-svg .cluster-label text{fill:rgb(0.8928571428, 1.2499999999, 1.607142857);}#my-svg .cluster-label span{color:rgb(0.8928571428, 1.2499999999, 1.607142857);}#my-svg .cluster-label span p{background-color:transparent;}#my-svg .label text,#my-svg span{fill:#2D3B48;color:#2D3B48;}#my-svg .node rect,#my-svg .node circle,#my-svg .node ellipse,#my-svg .node polygon,#my-svg .node path{fill:#EDF1F5;stroke:#5A6B7B;stroke-width:1px;}#my-svg .rough-node .label text,#my-svg .node .label text,#my-svg .image-shape .label,#my-svg .icon-shape .label{text-anchor:middle;}#my-svg .node .katex path{fill:#000;stroke:#000;stroke-width:1px;}#my-svg .rough-node .label,#my-svg .node .label,#my-svg .image-shape .label,#my-svg .icon-shape .label{text-align:center;}#my-svg .node.clickable{cursor:pointer;}#my-svg .root .anchor path{fill:#8A94A6!important;stroke-width:0;stroke:#8A94A6;}#my-svg .arrowheadPath{fill:#0b0b0b;}#my-svg .edgePath .path{stroke:#8A94A6;stroke-width:1px;}#my-svg .flowchart-link{stroke:#8A94A6;fill:none;}#my-svg .edgeLabel{background-color:#FFFFFF;text-align:center;}#my-svg .edgeLabel p{background-color:#FFFFFF;}#my-svg .edgeLabel rect{opacity:0.5;background-color:#FFFFFF;fill:#FFFFFF;}#my-svg .labelBkg{background-color:rgba(255, 255, 255, 0.5);}#my-svg .cluster rect{fill:#FAFBFC;stroke:#D5DBE3;stroke-width:1px;}#my-svg .cluster text{fill:rgb(0.8928571428, 1.2499999999, 1.607142857);}#my-svg .cluster span{color:rgb(0.8928571428, 1.2499999999, 1.607142857);}#my-svg div.mermaidTooltip{position:absolute;text-align:center;max-width:200px;padding:2px;font-size:12px;background:hsl(30, 28.5714285714%, 99.5098039216%);border:1px solid hsl(30, 0%, 89.5098039216%);border-radius:2px;pointer-events:none;z-index:100;}#my-svg .flowchartTitleText{text-anchor:middle;font-size:18px;fill:#2D3B48;}#my-svg rect.text{fill:none;stroke-width:0;}#my-svg .icon-shape,#my-svg .image-shape{background-color:#FFFFFF;text-align:center;}#my-svg .icon-shape p,#my-svg .image-shape p{background-color:#FFFFFF;padding:2px;}#my-svg .icon-shape .label rect,#my-svg .image-shape .label rect{opacity:0.5;background-color:#FFFFFF;fill:#FFFFFF;}#my-svg .label-icon{display:inline-block;height:1em;overflow:visible;vertical-align:-0.125em;}#my-svg .node .label-icon path{fill:currentColor;stroke:revert;stroke-width:revert;}#my-svg .node .neo-node{stroke:#5A6B7B;}#my-svg [data-look="neo"].node rect,#my-svg [data-look="neo"].cluster rect,#my-svg [data-look="neo"].node polygon{stroke:url(#my-svg-gradient);filter:drop-shadow( 1px 2px 2px rgba(185,185,185,1));}#my-svg [data-look="neo"].swimlane.cluster rect{filter:none;}#my-svg [data-look="neo"].node path{stroke:url(#my-svg-gradient);stroke-width:1px;}#my-svg [data-look="neo"].node .outer-path{filter:drop-shadow( 1px 2px 2px rgba(185,185,185,1));}#my-svg [data-look="neo"].node .neo-line path{stroke:#5A6B7B;filter:none;}#my-svg [data-look="neo"].node circle{stroke:url(#my-svg-gradient);filter:drop-shadow( 1px 2px 2px rgba(185,185,185,1));}#my-svg [data-look="neo"].node circle .state-start{fill:#000000;}#my-svg [data-look="neo"].icon-shape .icon{fill:url(#my-svg-gradient);filter:drop-shadow( 1px 2px 2px rgba(185,185,185,1));}#my-svg [data-look="neo"].icon-shape .icon-neo path{stroke:url(#my-svg-gradient);filter:drop-shadow( 1px 2px 2px rgba(185,185,185,1));}#my-svg :root{--mermaid-font-family:"trebuchet ms",verdana,arial,sans-serif;}#my-svg .humano&gt;*{fill:rgb(255, 243, 214)!important;stroke:rgb(183, 121, 31)!important;color:rgb(123, 75, 18)!important;stroke-width:1.5px!important;}#my-svg .humano span{fill:rgb(255, 243, 214)!important;stroke:rgb(183, 121, 31)!important;color:rgb(123, 75, 18)!important;stroke-width:1.5px!important;}#my-svg .humano tspan{fill:rgb(123, 75, 18)!important;}#my-svg .llm&gt;*{fill:rgb(232, 236, 251)!important;stroke:rgb(76, 95, 213)!important;color:rgb(42, 53, 119)!important;}#my-svg .llm span{fill:rgb(232, 236, 251)!important;stroke:rgb(76, 95, 213)!important;color:rgb(42, 53, 119)!important;}#my-svg .llm tspan{fill:rgb(42, 53, 119)!important;}#my-svg .det&gt;*{fill:rgb(221, 243, 231)!important;stroke:rgb(47, 133, 90)!important;color:rgb(28, 69, 50)!important;}#my-svg .det span{fill:rgb(221, 243, 231)!important;stroke:rgb(47, 133, 90)!important;color:rgb(28, 69, 50)!important;}#my-svg .det tspan{fill:rgb(28, 69, 50)!important;}#my-svg .io&gt;*{fill:rgb(237, 241, 245)!important;stroke:rgb(90, 107, 123)!important;color:rgb(45, 59, 72)!important;}#my-svg .io span{fill:rgb(237, 241, 245)!important;stroke:rgb(90, 107, 123)!important;color:rgb(45, 59, 72)!important;}#my-svg .io tspan{fill:rgb(45, 59, 72)!important;}#my-svg .alerta&gt;*{fill:rgb(251, 225, 225)!important;stroke:rgb(197, 48, 48)!important;color:rgb(116, 42, 42)!important;}#my-svg .alerta span{fill:rgb(251, 225, 225)!important;stroke:rgb(197, 48, 48)!important;color:rgb(116, 42, 42)!important;}#my-svg .alerta tspan{fill:rgb(116, 42, 42)!important;}</style><g><marker id="my-svg_flowchart-v2-pointEnd" class="marker flowchart-v2" viewBox="0 0 10 10" refX="5" refY="5" markerUnits="userSpaceOnUse" markerWidth="8" markerHeight="8" orient="auto"><path d="M 0 0 L 10 5 L 0 10 z" class="arrowMarkerPath" style="stroke-width: 1; stroke-dasharray: 1, 0;"/></marker><marker id="my-svg_flowchart-v2-pointStart" class="marker flowchart-v2" viewBox="0 0 10 10" refX="4.5" refY="5" markerUnits="userSpaceOnUse" markerWidth="8" markerHeight="8" orient="auto"><path d="M 0 5 L 10 10 L 10 0 z" class="arrowMarkerPath" style="stroke-width: 1; stroke-dasharray: 1, 0;"/></marker><marker id="my-svg_flowchart-v2-pointEnd-margin" class="marker flowchart-v2" viewBox="0 0 11.5 14" refX="11.5" refY="7" markerUnits="userSpaceOnUse" markerWidth="10.5" markerHeight="14" orient="auto"><path d="M 0 0 L 11.5 7 L 0 14 z" class="arrowMarkerPath" style="stroke-width: 0; stroke-dasharray: 1, 0;"/></marker><marker id="my-svg_flowchart-v2-pointStart-margin" class="marker flowchart-v2" viewBox="0 0 11.5 14" refX="1" refY="7" markerUnits="userSpaceOnUse" markerWidth="11.5" markerHeight="14" orient="auto"><polygon points="0,7 11.5,14 11.5,0" class="arrowMarkerPath" style="stroke-width: 0; stroke-dasharray: 1, 0;"/></marker><marker id="my-svg_flowchart-v2-circleEnd" class="marker flowchart-v2" viewBox="0 0 10 10" refX="11" refY="5" markerUnits="userSpaceOnUse" markerWidth="11" markerHeight="11" orient="auto"><circle cx="5" cy="5" r="5" class="arrowMarkerPath" style="stroke-width: 1; stroke-dasharray: 1, 0;"/></marker><marker id="my-svg_flowchart-v2-circleStart" class="marker flowchart-v2" viewBox="0 0 10 10" refX="-1" refY="5" markerUnits="userSpaceOnUse" markerWidth="11" markerHeight="11" orient="auto"><circle cx="5" cy="5" r="5" class="arrowMarkerPath" style="stroke-width: 1; stroke-dasharray: 1, 0;"/></marker><marker id="my-svg_flowchart-v2-circleEnd-margin" class="marker flowchart-v2" viewBox="0 0 10 10" refY="5" refX="12.25" markerUnits="userSpaceOnUse" markerWidth="14" markerHeight="14" orient="auto"><circle cx="5" cy="5" r="5" class="arrowMarkerPath" style="stroke-width: 0; stroke-dasharray: 1, 0;"/></marker><marker id="my-svg_flowchart-v2-circleStart-margin" class="marker flowchart-v2" viewBox="0 0 10 10" refX="-2" refY="5" markerUnits="userSpaceOnUse" markerWidth="14" markerHeight="14" orient="auto"><circle cx="5" cy="5" r="5" class="arrowMarkerPath" style="stroke-width: 0; stroke-dasharray: 1, 0;"/></marker><marker id="my-svg_flowchart-v2-crossEnd" class="marker cross flowchart-v2" viewBox="0 0 11 11" refX="12" refY="5.2" markerUnits="userSpaceOnUse" markerWidth="11" markerHeight="11" orient="auto"><path d="M 1,1 l 9,9 M 10,1 l -9,9" class="arrowMarkerPath" style="stroke-width: 2; stroke-dasharray: 1, 0;"/></marker><marker id="my-svg_flowchart-v2-crossStart" class="marker cross flowchart-v2" viewBox="0 0 11 11" refX="-1" refY="5.2" markerUnits="userSpaceOnUse" markerWidth="11" markerHeight="11" orient="auto"><path d="M 1,1 l 9,9 M 10,1 l -9,9" class="arrowMarkerPath" style="stroke-width: 2; stroke-dasharray: 1, 0;"/></marker><marker id="my-svg_flowchart-v2-crossEnd-margin" class="marker cross flowchart-v2" viewBox="0 0 15 15" refX="17.7" refY="7.5" markerUnits="userSpaceOnUse" markerWidth="12" markerHeight="12" orient="auto"><path d="M 1,1 L 14,14 M 1,14 L 14,1" class="arrowMarkerPath" style="stroke-width: 2.5;"/></marker><marker id="my-svg_flowchart-v2-crossStart-margin" class="marker cross flowchart-v2" viewBox="0 0 15 15" refX="-3.5" refY="7.5" markerUnits="userSpaceOnUse" markerWidth="12" markerHeight="12" orient="auto"><path d="M 1,1 L 14,14 M 1,14 L 14,1" class="arrowMarkerPath" style="stroke-width: 2.5; stroke-dasharray: 1, 0;"/></marker><g class="root"><g class="clusters"/><g class="edgePaths"><path d="M108.719,71.875L128.385,71.875C148.052,71.875,187.385,71.875,226.052,71.875C264.719,71.875,302.719,71.875,321.719,71.875L340.719,71.875" id="my-svg-L_PR_TR_0" class="edge-thickness-normal edge-pattern-solid edge-thickness-normal edge-pattern-solid flowchart-link" style=";" data-edge="true" data-et="edge" data-id="L_PR_TR_0" data-points="W3sieCI6MTA4LjcxODc1LCJ5Ijo3MS44NzV9LHsieCI6MjI2LjcxODc1LCJ5Ijo3MS44NzV9LHsieCI6MzQ0LjcxODc1LCJ5Ijo3MS44NzV9XQ==" data-look="classic" marker-end="url(#my-svg_flowchart-v2-pointEnd)"/><path d="M483.359,71.875L502.551,71.875C521.742,71.875,560.125,71.875,597.841,71.875C635.557,71.875,672.607,71.875,691.132,71.875L709.656,71.875" id="my-svg-L_TR_MA_0" class="edge-thickness-normal edge-pattern-solid edge-thickness-normal edge-pattern-solid flowchart-link" style=";" data-edge="true" data-et="edge" data-id="L_TR_MA_0" data-points="W3sieCI6NDgzLjM1OTM3NSwieSI6NzEuODc1fSx7IngiOjU5OC41MDc4MTI1LCJ5Ijo3MS44NzV9LHsieCI6NzEzLjY1NjI1LCJ5Ijo3MS44NzV9XQ==" data-look="classic" marker-end="url(#my-svg_flowchart-v2-pointEnd)"/><path d="M791.5,63.287L811.167,58.947C830.833,54.608,870.167,45.929,912.449,41.67C954.731,37.412,999.961,37.574,1022.576,37.655L1045.192,37.736" id="my-svg-L_MA_CL_0" class="edge-thickness-normal edge-pattern-solid edge-thickness-normal edge-pattern-solid flowchart-link" style=";" data-edge="true" data-et="edge" data-id="L_MA_CL_0" data-points="W3sieCI6NzkxLjUsInkiOjYzLjI4Njg0MTU4MTIwMDgzfSx7IngiOjkwOS41LCJ5IjozNy4yNX0seyJ4IjoxMDQ5LjE5MTc2NDgzMTU0MjMsInkiOjM3Ljc1fV0=" data-look="classic" marker-end="url(#my-svg_flowchart-v2-pointEnd)"/><path d="M791.5,80.463L811.167,84.803C830.833,89.142,870.167,97.821,908.833,102.161C947.5,106.5,985.5,106.5,1004.5,106.5L1023.5,106.5" id="my-svg-L_MA_DV_0" class="edge-thickness-normal edge-pattern-dotted edge-thickness-normal edge-pattern-solid flowchart-link" style=";" data-edge="true" data-et="edge" data-id="L_MA_DV_0" data-points="W3sieCI6NzkxLjUsInkiOjgwLjQ2MzE1ODQxODc5OTE3fSx7IngiOjkwOS41LCJ5IjoxMDYuNX0seyJ4IjoxMDI3LjUsInkiOjEwNi41fV0=" data-look="classic" marker-end="url(#my-svg_flowchart-v2-pointEnd)"/></g><g class="edgeLabels"><g class="edgeLabel" transform="translate(226.71875, 71.875)"><g class="label" data-id="L_PR_TR_0" transform="translate(-100, -29.25)"><foreignObject width="200" height="58.5"><div xmlns="http://www.w3.org/1999/xhtml" class="labelBkg" style="display: table; white-space: break-spaces; line-height: 1.5; max-width: 200px; text-align: center; width: 200px;"><span class="edgeLabel"><p>Passo 1 · dry autônomo, run sob OK<br />merge = usuário</p></span></div></foreignObject></g></g><g class="edgeLabel" transform="translate(598.5078125, 71.875)"><g class="label" data-id="L_TR_MA_0" transform="translate(-97.1484375, -19.5)"><foreignObject width="194.296875" height="39"><div xmlns="http://www.w3.org/1999/xhtml" class="labelBkg" style="display: table-cell; white-space: nowrap; line-height: 1.5; max-width: 200px; text-align: center;"><span class="edgeLabel"><p>Passo 2 · comando do usuário<br />PR_TITLE = Release X.Y.Z</p></span></div></foreignObject></g></g><g class="edgeLabel" transform="translate(909.5, 37.25)"><g class="label" data-id="L_MA_CL_0" transform="translate(-100, -29.25)"><foreignObject width="200" height="58.5"><div xmlns="http://www.w3.org/1999/xhtml" class="labelBkg" style="display: table; white-space: break-spaces; line-height: 1.5; max-width: 200px; text-align: center; width: 200px;"><span class="edgeLabel"><p>Passo 3 · run-triggers<br />usuário + aprova builds no GCP</p></span></div></foreignObject></g></g><g class="edgeLabel" transform="translate(909.5, 106.5)"><g class="label" data-id="L_MA_DV_0" transform="translate(-89.4140625, -19.5)"><foreignObject width="178.828125" height="39"><div xmlns="http://www.w3.org/1999/xhtml" class="labelBkg" style="display: table-cell; white-space: nowrap; line-height: 1.5; max-width: 200px; text-align: center;"><span class="edgeLabel"><p>pós-deploy · mesmos repos<br />PR_TITLE = Sync Master</p></span></div></foreignObject></g></g></g><g class="nodes"><g class="node default io" id="my-svg-flowchart-PR-0" data-look="classic" transform="translate(58.359375, 71.875)"><rect class="basic label-container" style="fill:#EDF1F5 !important;stroke:#5A6B7B !important" x="-50.359375" y="-17.75" width="100.71875" height="35.5"/><g class="label" style="color:#2D3B48 !important" transform="translate(-34.359375, -9.75)"><rect/><foreignObject width="68.71875" height="19.5"><div style="color: rgb(45, 59, 72) !important; display: table-cell; white-space: nowrap; line-height: 1.5; max-width: 200px; text-align: center;" xmlns="http://www.w3.org/1999/xhtml"><span style="color:#2D3B48 !important" class="nodeLabel"><p>prerelease</p></span></div></foreignObject></g></g><g class="node default io" id="my-svg-flowchart-TR-1" data-look="classic" transform="translate(414.0390625, 71.875)"><rect class="basic label-container" style="fill:#EDF1F5 !important;stroke:#5A6B7B !important" x="-69.3203125" y="-17.75" width="138.640625" height="35.5"/><g class="label" style="color:#2D3B48 !important" transform="translate(-53.3203125, -9.75)"><rect/><foreignObject width="106.640625" height="19.5"><div style="color: rgb(45, 59, 72) !important; display: table-cell; white-space: nowrap; line-height: 1.5; max-width: 200px; text-align: center;" xmlns="http://www.w3.org/1999/xhtml"><span style="color:#2D3B48 !important" class="nodeLabel"><p>teste_regressivo</p></span></div></foreignObject></g></g><g class="node default io" id="my-svg-flowchart-MA-3" data-look="classic" transform="translate(752.578125, 71.875)"><rect class="basic label-container" style="fill:#EDF1F5 !important;stroke:#5A6B7B !important" x="-38.921875" y="-17.75" width="77.84375" height="35.5"/><g class="label" style="color:#2D3B48 !important" transform="translate(-22.921875, -9.75)"><rect/><foreignObject width="45.84375" height="19.5"><div style="color: rgb(45, 59, 72) !important; display: table-cell; white-space: nowrap; line-height: 1.5; max-width: 200px; text-align: center;" xmlns="http://www.w3.org/1999/xhtml"><span style="color:#2D3B48 !important" class="nodeLabel"><p>master</p></span></div></foreignObject></g></g><g class="node default humano" id="my-svg-flowchart-CL-5" data-look="classic" transform="translate(1134.1796875, 37.25)"><g class="basic label-container outer-path"><path d="M-62 -23.5 C-20.959605900779493 -23.5, 20.080788198441013 -23.5, 62 -23.5 C62 -23.5, 62 -23.5, 62 -23.5 C62.467961109428344 -23.484993398051675, 62.93592221885669 -23.469986796103353, 63.505650169546755 -23.451716729632903 C63.91660366328663 -23.412072540335704, 64.3275571570265 -23.372428351038504, 65.00511329958589 -23.307065324846285 C65.50365931333896 -23.226464271624767, 66.00220532709204 -23.14586321840325, 66.49222777448225 -23.066640189290037 C67.07338097231796 -22.933995764263067, 67.65453417015368 -22.801351339236096, 67.96088272187342 -22.731429281417192 C68.43427869949214 -22.59092784016615, 68.90767467711088 -22.450426398915102, 69.40504312355509 -22.30281005475071 C69.9615014018649 -22.098028264488764, 70.51795968017471 -21.893246474226817, 70.81877461466529 -21.78254379763151 C71.22595905328058 -21.602295325353737, 71.63314349189588 -21.422046853075962, 72.19626786926261 -21.17276839570685 C72.54577056960778 -20.99043306080394, 72.89527326995295 -20.808097725901032, 73.53186247209253 -20.475989546899655 C73.89483976843808 -20.255950576763624, 74.25781706478362 -20.035911606627593, 74.82007017844789 -19.695070464958256 C75.27037774580745 -19.380955399468643, 75.720685313167 -19.06684033397903, 76.05559746654357 -18.83322011389698 C76.51257103758515 -18.468795851568764, 76.96954460862672 -18.104371589240547, 77.23336728973302 -17.89398002167466 C77.6512061439341 -17.514509829699502, 78.0690449981352 -17.13503963772434, 78.34853993918193 -16.8812097272966 C78.56746704077452 -16.655149520652937, 78.78639414236712 -16.429089314009275, 79.39653293126992 -15.799070921140949 C79.70894595866183 -15.43209280236155, 80.02135898605376 -15.06511468358215, 80.3730398379987 -14.652010343680239 C80.63063303425743 -14.30685892791649, 80.88822623051615 -13.961707512152742, 81.27404798302845 -13.444741512870992 C81.55220594292653 -13.017416190596911, 81.8303639028246 -12.590090868322829, 82.09585493062563 -12.18222535529734 C82.38141246107953 -11.675189044140957, 82.66696999153343 -11.168152732984575, 82.8350836997655 -10.869649820659628 C82.9786009716958 -10.571633134718674, 83.1221182436261 -10.27361644877772, 83.4886966408716 -9.51240856337626 C83.71037877860985 -8.964849397230195, 83.9320609163481 -8.41729023108413, 84.05400791816936 -8.116078778900741 C84.17636961844 -7.747544833374944, 84.29873131871064 -7.379010887849146, 84.52869454636152 -6.686398285829269 C84.65354848420216 -6.210276108803969, 84.77840242204279 -5.734153931778669, 84.91080593627285 -5.2292419479733905 C84.98277384568975 -4.859701943540665, 85.05474175510665 -4.4901619391079395, 85.19877191023957 -3.7505975332844206 C85.24119996032387 -3.421533955196771, 85.28362801040817 -3.0924703771091213, 85.39140915430616 -2.256541108830526 C85.41863001854078 -1.8325541760900936, 85.4458508827754 -1.4085672433496614, 85.48792608071616 -0.7532120729338964 C85.48792608071616 -0.3865513500726377, 85.48792608071616 -0.01989062721137902, 85.48792608071616 0.7532120729338907 C85.45937689499303 1.197888685059749, 85.43082770926989 1.6425652971856073, 85.39140915430616 2.25654110883051 C85.33226430099444 2.7152569116439302, 85.2731194476827 3.1739727144573506, 85.19877191023957 3.750597533284404 C85.09631907635065 4.276671181889929, 84.99386624246172 4.802744830495454, 84.91080593627285 5.229241947973386 C84.75897795917216 5.808227827319871, 84.60714998207145 6.387213706666357, 84.52869454636152 6.686398285829253 C84.42352531636924 7.003151250124806, 84.31835608637694 7.319904214420359, 84.05400791816938 8.116078778900725 C83.86326884083802 8.587207987598383, 83.67252976350665 9.058337196296042, 83.4886966408716 9.512408563376253 C83.28226546677303 9.941067313311475, 83.07583429267446 10.369726063246695, 82.8350836997655 10.869649820659623 C82.63348879663917 11.227601984857964, 82.43189389351282 11.585554149056305, 82.09585493062563 12.182225355297335 C81.79352708902495 12.646682106388637, 81.49119924742425 13.111138857479938, 81.27404798302847 13.44474151287098 C81.02559554860451 13.777645140516666, 80.77714311418056 14.110548768162355, 80.3730398379987 14.652010343680235 C80.05593901651447 15.024495012143513, 79.73883819503023 15.39697968060679, 79.39653293126992 15.799070921140936 C78.97989224992229 16.22928663146846, 78.56325156857466 16.65950234179599, 78.34853993918193 16.881209727296593 C77.97228608426288 17.222913523202603, 77.59603222934382 17.564617319108617, 77.23336728973304 17.893980021674647 C76.8529091975459 18.197385225778863, 76.47245110535876 18.50079042988308, 76.05559746654359 18.833220113896978 C75.58743693470304 19.15978863456616, 75.11927640286248 19.48635715523534, 74.8200701784479 19.69507046495825 C74.35506106163578 19.97696172426665, 73.89005194482367 20.258852983575053, 73.53186247209254 20.47598954689965 C73.20283162892405 20.64764472702634, 72.87380078575555 20.819299907153027, 72.19626786926261 21.172768395706846 C71.87499811292115 21.3149849867105, 71.55372835657968 21.45720157771415, 70.8187746146653 21.782543797631508 C70.30773906585698 21.970609603553797, 69.79670351704867 22.15867540947609, 69.4050431235551 22.302810054750708 C68.89377452918325 22.45455188985666, 68.38250593481139 22.60629372496261, 67.96088272187345 22.73142928141719 C67.66171305256495 22.799712806172312, 67.36254338325645 22.867996330927436, 66.49222777448226 23.066640189290034 C65.94200804088624 23.155595448800078, 65.3917883072902 23.244550708310122, 65.0051132995859 23.30706532484628 C64.48051453790818 23.357672736463012, 63.95591577623047 23.408280148079744, 63.505650169546755 23.451716729632903 C63.1974955351539 23.461598648971272, 62.88934090076105 23.471480568309644, 62.00000000000001 23.5 C62.00000000000001 23.5, 62 23.5, 62 23.5 C25.548460819592258 23.5, -10.903078360815485 23.5, -61.99999999999999 23.5 C-62.393523171463464 23.48738047783755, -62.78704634292693 23.474760955675105, -63.50565016954674 23.451716729632903 C-64.02601052870708 23.4015181916096, -64.5463708878674 23.351319653586295, -65.0051132995859 23.30706532484628 C-65.53832648028366 23.22085955292104, -66.07153966098141 23.1346537809958, -66.49222777448225 23.066640189290034 C-66.84307199616211 22.986562285164116, -67.19391621784197 22.906484381038194, -67.96088272187342 22.731429281417192 C-68.3490747452426 22.61621592654273, -68.7372667686118 22.501002571668266, -69.40504312355507 22.30281005475072 C-69.78229046169274 22.163979547079894, -70.1595377998304 22.025149039409065, -70.8187746146653 21.78254379763151 C-71.29221618428235 21.572965258907217, -71.76565775389939 21.363386720182927, -72.19626786926261 21.172768395706854 C-72.49302689532504 21.017949401893308, -72.78978592138748 20.863130408079762, -73.53186247209253 20.475989546899655 C-73.86330093114927 20.275069605270872, -74.19473939020602 20.074149663642093, -74.82007017844788 19.695070464958263 C-75.1551744301264 19.461316245416587, -75.49027868180491 19.227562025874906, -76.05559746654357 18.83322011389698 C-76.449063859133 18.519441136387353, -76.84253025172244 18.205662158877725, -77.23336728973302 17.893980021674665 C-77.6240208057485 17.539198834555044, -78.01467432176396 17.184417647435424, -78.34853993918192 16.88120972729661 C-78.60789135869196 16.613408093504958, -78.867242778202 16.345606459713306, -79.39653293126992 15.799070921140945 C-79.59495164937623 15.565997004508365, -79.79337036748255 15.332923087875784, -80.3730398379987 14.652010343680242 C-80.64717770253509 14.284690579674711, -80.92131556707147 13.91737081566918, -81.27404798302845 13.444741512870994 C-81.51975290484631 13.067272771949046, -81.76545782666416 12.689804031027098, -82.09585493062562 12.182225355297351 C-82.26639009171022 11.879422908234048, -82.43692525279482 11.576620461170746, -82.8350836997655 10.869649820659632 C-83.07401118675496 10.37351178169677, -83.31293867374441 9.877373742733909, -83.4886966408716 9.512408563376264 C-83.66605035290904 9.074341465743025, -83.84340406494647 8.636274368109788, -84.05400791816936 8.116078778900743 C-84.2115179320951 7.641683712769053, -84.36902794602084 7.167288646637363, -84.52869454636152 6.686398285829262 C-84.64436240097922 6.2453066254066565, -84.76003025559693 5.804214964984051, -84.91080593627285 5.229241947973394 C-84.98379987753978 4.8544334868426695, -85.05679381880671 4.479625025711946, -85.19877191023957 3.7505975332844232 C-85.27021479930434 3.1965005936922597, -85.34165768836911 2.642403654100096, -85.39140915430616 2.256541108830539 C-85.41606335363574 1.8725320537609291, -85.44071755296531 1.488522998691319, -85.48792608071616 0.7532120729338994 C-85.48792608071616 0.25943450945350693, -85.48792608071616 -0.2343430540268855, -85.48792608071616 -0.7532120729338879 C-85.45243113500663 -1.3060745033642882, -85.4169361892971 -1.8589369337946886, -85.39140915430616 -2.2565411088305067 C-85.35245871184014 -2.558633048962081, -85.31350826937413 -2.8607249890936552, -85.19877191023957 -3.750597533284412 C-85.1327133699839 -4.0897941760198275, -85.06665482972824 -4.428990818755244, -84.91080593627285 -5.229241947973383 C-84.81318609520486 -5.601508710672372, -84.71556625413687 -5.9737754733713615, -84.52869454636152 -6.6863982858292506 C-84.42762552064713 -6.990802088118607, -84.32655649493273 -7.295205890407964, -84.05400791816938 -8.116078778900713 C-83.91763559645591 -8.45292105011244, -83.78126327474246 -8.789763321324166, -83.4886966408716 -9.512408563376251 C-83.35400419568549 -9.79210030776184, -83.21931175049939 -10.071792052147432, -82.8350836997655 -10.869649820659621 C-82.66438633192612 -11.172740282241257, -82.49368896408674 -11.475830743822893, -82.09585493062563 -12.182225355297344 C-81.8559919962486 -12.550719234716894, -81.61612906187159 -12.919213114136442, -81.27404798302847 -13.444741512870987 C-80.9979707354186 -13.814659873513538, -80.72189348780874 -14.184578234156088, -80.3730398379987 -14.652010343680235 C-80.06928139981002 -15.008822289521428, -79.76552296162136 -15.365634235362622, -79.39653293126992 -15.799070921140936 C-79.10283039682828 -16.102342901378446, -78.80912786238666 -16.405614881615957, -78.34853993918195 -16.881209727296586 C-77.95338634425609 -17.240077767017056, -77.55823274933023 -17.598945806737525, -77.23336728973305 -17.893980021674643 C-76.89709189163426 -18.16215070299427, -76.56081649353546 -18.430321384313896, -76.05559746654359 -18.833220113896974 C-75.58370720962388 -19.162390329324175, -75.11181695270419 -19.491560544751373, -74.8200701784479 -19.695070464958246 C-74.34131230273202 -19.98529630271079, -73.86255442701612 -20.275522140463334, -73.53186247209254 -20.475989546899648 C-73.00167008063795 -20.752590577917072, -72.47147768918337 -21.029191608934497, -72.19626786926263 -21.172768395706846 C-71.89653783880789 -21.30544998901371, -71.59680780835315 -21.438131582320576, -70.8187746146653 -21.782543797631504 C-70.38571218511778 -21.941914774890204, -69.95264975557028 -22.101285752148907, -69.4050431235551 -22.302810054750708 C-68.84107240904605 -22.470193602474307, -68.277101694537 -22.637577150197902, -67.96088272187345 -22.731429281417185 C-67.45794034242725 -22.846222597520033, -66.95499796298105 -22.961015913622884, -66.49222777448226 -23.066640189290034 C-65.92745359301946 -23.15794849905975, -65.36267941155666 -23.24925680882946, -65.0051132995859 -23.30706532484628 C-64.63901541753603 -23.34238234723051, -64.27291753548614 -23.377699369614742, -63.505650169546755 -23.451716729632903 C-62.97086533261588 -23.46886623845774, -62.43608049568501 -23.486015747282575, -62.00000000000001 -23.5 C-62.00000000000001 -23.5, -62 -23.5, -62 -23.5" stroke="none" stroke-width="0" fill="#FFF3D6" style="fill:#FFF3D6 !important;stroke:#B7791F !important;stroke-width:1.5px !important"/><path d="M-62 -23.5 C-24.07788506977422 -23.5, 13.844229860451563 -23.5, 62 -23.5 M-62 -23.5 C-20.501004843280263 -23.5, 20.997990313439473 -23.5, 62 -23.5 M62 -23.5 C62 -23.5, 62 -23.5, 62 -23.5 M62 -23.5 C62 -23.5, 62 -23.5, 62 -23.5 M62 -23.5 C62.3243611923752 -23.489598367891286, 62.6487223847504 -23.479196735782576, 63.505650169546755 -23.451716729632903 M62 -23.5 C62.468162427445186 -23.484986942174718, 62.936324854890366 -23.469973884349436, 63.505650169546755 -23.451716729632903 M63.505650169546755 -23.451716729632903 C63.82132763560656 -23.42126370413981, 64.13700510166636 -23.390810678646723, 65.00511329958589 -23.307065324846285 M63.505650169546755 -23.451716729632903 C63.94450090619818 -23.40938132686337, 64.3833516428496 -23.367045924093837, 65.00511329958589 -23.307065324846285 M65.00511329958589 -23.307065324846285 C65.50792751764843 -23.225774221452433, 66.01074173571097 -23.14448311805858, 66.49222777448225 -23.066640189290037 M65.00511329958589 -23.307065324846285 C65.50799078762755 -23.225763992452872, 66.01086827566921 -23.144462660059464, 66.49222777448225 -23.066640189290037 M66.49222777448225 -23.066640189290037 C67.02430133888174 -22.945197870320346, 67.55637490328122 -22.823755551350654, 67.96088272187342 -22.731429281417192 M66.49222777448225 -23.066640189290037 C66.95802989269217 -22.960323895451513, 67.42383201090209 -22.854007601612988, 67.96088272187342 -22.731429281417192 M67.96088272187342 -22.731429281417192 C68.26653880108842 -22.64071216152768, 68.57219488030341 -22.54999504163817, 69.40504312355509 -22.30281005475071 M67.96088272187342 -22.731429281417192 C68.35393205209901 -22.61477430336427, 68.74698138232462 -22.498119325311347, 69.40504312355509 -22.30281005475071 M69.40504312355509 -22.30281005475071 C69.70477432724225 -22.19250620110896, 70.00450553092942 -22.08220234746721, 70.81877461466529 -21.78254379763151 M69.40504312355509 -22.30281005475071 C69.84862118744769 -22.13956922684756, 70.29219925134029 -21.97632839894441, 70.81877461466529 -21.78254379763151 M70.81877461466529 -21.78254379763151 C71.16022803772778 -21.631392496097668, 71.50168146079025 -21.48024119456382, 72.19626786926261 -21.17276839570685 M70.81877461466529 -21.78254379763151 C71.1265201758504 -21.646313966642584, 71.4342657370355 -21.510084135653656, 72.19626786926261 -21.17276839570685 M72.19626786926261 -21.17276839570685 C72.5701905555174 -20.97769316979664, 72.94411324177217 -20.782617943886432, 73.53186247209253 -20.475989546899655 M72.19626786926261 -21.17276839570685 C72.6466016654489 -20.937829542689027, 73.09693546163518 -20.702890689671207, 73.53186247209253 -20.475989546899655 M73.53186247209253 -20.475989546899655 C73.88819493167955 -20.259978715856032, 74.24452739126657 -20.04396788481241, 74.82007017844789 -19.695070464958256 M73.53186247209253 -20.475989546899655 C74.0405868220477 -20.16759785636071, 74.54931117200286 -19.85920616582177, 74.82007017844789 -19.695070464958256 M74.82007017844789 -19.695070464958256 C75.25187142600873 -19.393864607034555, 75.68367267356956 -19.092658749110853, 76.05559746654357 -18.83322011389698 M74.82007017844789 -19.695070464958256 C75.144936858968 -19.46845753187937, 75.46980353948811 -19.241844598800483, 76.05559746654357 -18.83322011389698 M76.05559746654357 -18.83322011389698 C76.29980206336106 -18.63847344649228, 76.54400666017854 -18.443726779087584, 77.23336728973302 -17.89398002167466 M76.05559746654357 -18.83322011389698 C76.43417228113607 -18.53131677355837, 76.81274709572858 -18.229413433219758, 77.23336728973302 -17.89398002167466 M77.23336728973302 -17.89398002167466 C77.58890175208542 -17.57109302989261, 77.94443621443781 -17.248206038110553, 78.34853993918193 -16.8812097272966 M77.23336728973302 -17.89398002167466 C77.50881895047446 -17.643822111440862, 77.78427061121589 -17.393664201207063, 78.34853993918193 -16.8812097272966 M78.34853993918193 -16.8812097272966 C78.72547895584172 -16.49198924532656, 79.10241797250151 -16.102768763356522, 79.39653293126992 -15.799070921140949 M78.34853993918193 -16.8812097272966 C78.64132123255371 -16.578889004099008, 78.9341025259255 -16.27656828090142, 79.39653293126992 -15.799070921140949 M79.39653293126992 -15.799070921140949 C79.7715072207836 -15.358604784036654, 80.14648151029729 -14.918138646932361, 80.3730398379987 -14.652010343680239 M79.39653293126992 -15.799070921140949 C79.77392808256782 -15.355761102033986, 80.15132323386571 -14.912451282927021, 80.3730398379987 -14.652010343680239 M80.3730398379987 -14.652010343680239 C80.60031430220248 -14.347483266776814, 80.82758876640625 -14.04295618987339, 81.27404798302845 -13.444741512870992 M80.3730398379987 -14.652010343680239 C80.55661153607129 -14.406040991988702, 80.74018323414388 -14.160071640297165, 81.27404798302845 -13.444741512870992 M81.27404798302845 -13.444741512870992 C81.54396323492423 -13.030079203565448, 81.81387848682002 -12.615416894259901, 82.09585493062563 -12.18222535529734 M81.27404798302845 -13.444741512870992 C81.48083169352856 -13.127066204341741, 81.68761540402866 -12.809390895812488, 82.09585493062563 -12.18222535529734 M82.09585493062563 -12.18222535529734 C82.2918183249063 -11.83427250530661, 82.48778171918696 -11.486319655315876, 82.8350836997655 -10.869649820659628 M82.09585493062563 -12.18222535529734 C82.29980025439474 -11.820099781241877, 82.50374557816383 -11.457974207186414, 82.8350836997655 -10.869649820659628 M82.8350836997655 -10.869649820659628 C83.09549904648021 -10.328891781210729, 83.35591439319492 -9.788133741761829, 83.4886966408716 -9.51240856337626 M82.8350836997655 -10.869649820659628 C83.09509861281424 -10.329723290286042, 83.35511352586296 -9.789796759912457, 83.4886966408716 -9.51240856337626 M83.4886966408716 -9.51240856337626 C83.69988058287632 -8.990780143660812, 83.91106452488106 -8.469151723945366, 84.05400791816936 -8.116078778900741 M83.4886966408716 -9.51240856337626 C83.7114295239879 -8.962254035831641, 83.9341624071042 -8.412099508287024, 84.05400791816936 -8.116078778900741 M84.05400791816936 -8.116078778900741 C84.16679489655803 -7.776382370158695, 84.27958187494669 -7.436685961416647, 84.52869454636152 -6.686398285829269 M84.05400791816936 -8.116078778900741 C84.20969907814347 -7.6471618110763435, 84.36539023811758 -7.178244843251947, 84.52869454636152 -6.686398285829269 M84.52869454636152 -6.686398285829269 C84.6196457007105 -6.339562115816922, 84.7105968550595 -5.992725945804575, 84.91080593627285 -5.2292419479733905 M84.52869454636152 -6.686398285829269 C84.60917220839518 -6.379502081255595, 84.68964987042882 -6.07260587668192, 84.91080593627285 -5.2292419479733905 M84.91080593627285 -5.2292419479733905 C84.97405145437689 -4.904489579454129, 85.03729697248093 -4.579737210934868, 85.19877191023957 -3.7505975332844206 M84.91080593627285 -5.2292419479733905 C85.006284011185 -4.738982212597794, 85.10176208609714 -4.248722477222196, 85.19877191023957 -3.7505975332844206 M85.19877191023957 -3.7505975332844206 C85.25824765213238 -3.2893154239774356, 85.3177233940252 -2.8280333146704506, 85.39140915430616 -2.256541108830526 M85.19877191023957 -3.7505975332844206 C85.24341116017709 -3.4043843257859545, 85.28805041011462 -3.058171118287488, 85.39140915430616 -2.256541108830526 M85.39140915430616 -2.256541108830526 C85.41698673108732 -1.858149704615571, 85.44256430786848 -1.4597583004006163, 85.48792608071616 -0.7532120729338964 M85.39140915430616 -2.256541108830526 C85.42230302422045 -1.775344147832453, 85.45319689413475 -1.2941471868343803, 85.48792608071616 -0.7532120729338964 M85.48792608071616 -0.7532120729338964 C85.48792608071616 -0.24074590727225909, 85.48792608071616 0.2717202583893782, 85.48792608071616 0.7532120729338907 M85.48792608071616 -0.7532120729338964 C85.48792608071616 -0.28959258926516973, 85.48792608071616 0.1740268944035569, 85.48792608071616 0.7532120729338907 M85.48792608071616 0.7532120729338907 C85.45958219156878 1.1946910251799365, 85.43123830242139 1.6361699774259821, 85.39140915430616 2.25654110883051 M85.48792608071616 0.7532120729338907 C85.46678179060724 1.0825514587441696, 85.44563750049832 1.4118908445544487, 85.39140915430616 2.25654110883051 M85.39140915430616 2.25654110883051 C85.31931538558669 2.815686142493749, 85.24722161686724 3.374831176156988, 85.19877191023957 3.750597533284404 M85.39140915430616 2.25654110883051 C85.34655753001091 2.6044014499094157, 85.30170590571566 2.9522617909883215, 85.19877191023957 3.750597533284404 M85.19877191023957 3.750597533284404 C85.13760867887115 4.0646577995077395, 85.07644544750272 4.378718065731075, 84.91080593627285 5.229241947973386 M85.19877191023957 3.750597533284404 C85.13384599286182 4.0839783969216255, 85.06892007548409 4.417359260558848, 84.91080593627285 5.229241947973386 M84.91080593627285 5.229241947973386 C84.76905526343401 5.7697986986381276, 84.62730459059516 6.310355449302869, 84.52869454636152 6.686398285829253 M84.91080593627285 5.229241947973386 C84.81002580763068 5.613560256870038, 84.70924567898851 5.9978785657666895, 84.52869454636152 6.686398285829253 M84.52869454636152 6.686398285829253 C84.41711290401308 7.022464414462387, 84.30553126166463 7.3585305430955215, 84.05400791816938 8.116078778900725 M84.52869454636152 6.686398285829253 C84.3847999297782 7.119785944484564, 84.24090531319487 7.553173603139874, 84.05400791816938 8.116078778900725 M84.05400791816938 8.116078778900725 C83.86606935021435 8.580290675294657, 83.67813078225933 9.04450257168859, 83.4886966408716 9.512408563376253 M84.05400791816938 8.116078778900725 C83.91697072189397 8.454563303134918, 83.77993352561857 8.793047827369112, 83.4886966408716 9.512408563376253 M83.4886966408716 9.512408563376253 C83.26446514526873 9.978030061781025, 83.04023364966586 10.443651560185796, 82.8350836997655 10.869649820659623 M83.4886966408716 9.512408563376253 C83.24153005267773 10.025655272278597, 82.99436346448387 10.538901981180942, 82.8350836997655 10.869649820659623 M82.8350836997655 10.869649820659623 C82.57380947178986 11.333568669314847, 82.31253524381421 11.797487517970072, 82.09585493062563 12.182225355297335 M82.8350836997655 10.869649820659623 C82.5535518079931 11.369538202696889, 82.2720199162207 11.869426584734155, 82.09585493062563 12.182225355297335 M82.09585493062563 12.182225355297335 C81.85827138564613 12.547217480500544, 81.62068784066662 12.912209605703755, 81.27404798302847 13.44474151287098 M82.09585493062563 12.182225355297335 C81.91321394317208 12.462810957998213, 81.73057295571851 12.743396560699091, 81.27404798302847 13.44474151287098 M81.27404798302847 13.44474151287098 C81.04279785130564 13.754595622059174, 80.8115477195828 14.064449731247368, 80.3730398379987 14.652010343680235 M81.27404798302847 13.44474151287098 C81.04355515665102 13.7535809018883, 80.81306233027357 14.062420290905619, 80.3730398379987 14.652010343680235 M80.3730398379987 14.652010343680235 C80.03899486725311 15.044398574015315, 79.7049498965075 15.436786804350394, 79.39653293126992 15.799070921140936 M80.3730398379987 14.652010343680235 C80.03851743606971 15.04495939184993, 79.70399503414072 15.437908440019628, 79.39653293126992 15.799070921140936 M79.39653293126992 15.799070921140936 C79.02727944250462 16.180355464566333, 78.65802595373934 16.56164000799173, 78.34853993918193 16.881209727296593 M79.39653293126992 15.799070921140936 C79.18058469136803 16.02205520851987, 78.96463645146612 16.2450394958988, 78.34853993918193 16.881209727296593 M78.34853993918193 16.881209727296593 C78.11053355075794 17.097360831959318, 77.87252716233392 17.313511936622042, 77.23336728973304 17.893980021674647 M78.34853993918193 16.881209727296593 C77.96479865084318 17.229713412127737, 77.58105736250444 17.57821709695888, 77.23336728973304 17.893980021674647 M77.23336728973304 17.893980021674647 C76.80007456891607 18.239519436122634, 76.36678184809911 18.585058850570626, 76.05559746654359 18.833220113896978 M77.23336728973304 17.893980021674647 C76.77548026879853 18.259132735984558, 76.31759324786404 18.624285450294465, 76.05559746654359 18.833220113896978 M76.05559746654359 18.833220113896978 C75.62680900038504 19.132324385935647, 75.19802053422649 19.43142865797432, 74.8200701784479 19.69507046495825 M76.05559746654359 18.833220113896978 C75.66141120402152 19.108187386584092, 75.26722494149945 19.383154659271206, 74.8200701784479 19.69507046495825 M74.8200701784479 19.69507046495825 C74.38934929530522 19.956175995516215, 73.95862841216253 20.21728152607418, 73.53186247209254 20.47598954689965 M74.8200701784479 19.69507046495825 C74.3952085348928 19.95262409004551, 73.97034689133768 20.210177715132772, 73.53186247209254 20.47598954689965 M73.53186247209254 20.47598954689965 C73.18493823703949 20.65697969811125, 72.83801400198644 20.837969849322846, 72.19626786926261 21.172768395706846 M73.53186247209254 20.47598954689965 C73.20039649068227 20.648915137087297, 72.86893050927199 20.821840727274946, 72.19626786926261 21.172768395706846 M72.19626786926261 21.172768395706846 C71.86391140706694 21.31989274251671, 71.53155494487126 21.46701708932658, 70.8187746146653 21.782543797631508 M72.19626786926261 21.172768395706846 C71.76727636055395 21.36267021103121, 71.33828485184527 21.552572026355573, 70.8187746146653 21.782543797631508 M70.8187746146653 21.782543797631508 C70.52322326751145 21.891309425430826, 70.22767192035761 22.000075053230148, 69.4050431235551 22.302810054750708 M70.8187746146653 21.782543797631508 C70.26703531363867 21.985588960631496, 69.71529601261206 22.188634123631484, 69.4050431235551 22.302810054750708 M69.4050431235551 22.302810054750708 C68.91980565590794 22.446825988084942, 68.43456818826078 22.590841921419177, 67.96088272187345 22.73142928141719 M69.4050431235551 22.302810054750708 C69.00099455681806 22.42272954846406, 68.59694599008101 22.54264904217741, 67.96088272187345 22.73142928141719 M67.96088272187345 22.73142928141719 C67.41722234745005 22.855516214163835, 66.87356197302664 22.97960314691048, 66.49222777448226 23.066640189290034 M67.96088272187345 22.73142928141719 C67.3753483814678 22.86507367364612, 66.78981404106216 22.998718065875046, 66.49222777448226 23.066640189290034 M66.49222777448226 23.066640189290034 C66.18743064268463 23.115917425822015, 65.88263351088702 23.165194662353993, 65.0051132995859 23.30706532484628 M66.49222777448226 23.066640189290034 C66.1650273894593 23.119539410063663, 65.83782700443632 23.172438630837295, 65.0051132995859 23.30706532484628 M65.0051132995859 23.30706532484628 C64.70484658240507 23.336031693929154, 64.40457986522424 23.364998063012028, 63.505650169546755 23.451716729632903 M65.0051132995859 23.30706532484628 C64.57510016243943 23.34854817502034, 64.14508702529297 23.3900310251944, 63.505650169546755 23.451716729632903 M63.505650169546755 23.451716729632903 C63.19517219776654 23.461673153879183, 62.884694225986316 23.471629578125466, 62.00000000000001 23.5 M63.505650169546755 23.451716729632903 C62.94877687257327 23.469574572378725, 62.391903575599784 23.487432415124548, 62.00000000000001 23.5 M62.00000000000001 23.5 C62.00000000000001 23.5, 62.00000000000001 23.5, 62 23.5 M62.00000000000001 23.5 C62.00000000000001 23.5, 62 23.5, 62 23.5 M62 23.5 C13.06162186901728 23.5, -35.87675626196544 23.5, -61.99999999999999 23.5 M62 23.5 C18.471179389789533 23.5, -25.057641220420933 23.5, -61.99999999999999 23.5 M-61.99999999999999 23.5 C-62.55935827138269 23.482062468961583, -63.118716542765384 23.464124937923167, -63.50565016954674 23.451716729632903 M-61.99999999999999 23.5 C-62.46116550176588 23.485211319962563, -62.92233100353178 23.470422639925125, -63.50565016954674 23.451716729632903 M-63.50565016954674 23.451716729632903 C-63.86401823601617 23.417145393261254, -64.2223863024856 23.382574056889606, -65.0051132995859 23.30706532484628 M-63.50565016954674 23.451716729632903 C-64.10091697039486 23.394292057268153, -64.69618377124299 23.336867384903407, -65.0051132995859 23.30706532484628 M-65.0051132995859 23.30706532484628 C-65.53965193061124 23.2206452643911, -66.0741905616366 23.134225203935916, -66.49222777448225 23.066640189290034 M-65.0051132995859 23.30706532484628 C-65.37349910572938 23.2475075645836, -65.74188491187284 23.187949804320915, -66.49222777448225 23.066640189290034 M-66.49222777448225 23.066640189290034 C-66.87480466975911 22.979319509490644, -67.25738156503598 22.891998829691254, -67.96088272187342 22.731429281417192 M-66.49222777448225 23.066640189290034 C-66.98639688040922 22.95384931561699, -67.48056598633619 22.841058441943943, -67.96088272187342 22.731429281417192 M-67.96088272187342 22.731429281417192 C-68.45689051277917 22.58421677267439, -68.9528983036849 22.43700426393159, -69.40504312355507 22.30281005475072 M-67.96088272187342 22.731429281417192 C-68.53800768258466 22.560141622468834, -69.1151326432959 22.388853963520475, -69.40504312355507 22.30281005475072 M-69.40504312355507 22.30281005475072 C-69.69297288257445 22.196849241838073, -69.98090264159383 22.090888428925428, -70.8187746146653 21.78254379763151 M-69.40504312355507 22.30281005475072 C-69.91233317824452 22.116122625287144, -70.41962323293396 21.92943519582357, -70.8187746146653 21.78254379763151 M-70.8187746146653 21.78254379763151 C-71.3634307473407 21.54144068434624, -71.9080868800161 21.300337571060968, -72.19626786926261 21.172768395706854 M-70.8187746146653 21.78254379763151 C-71.22968980181638 21.600643833645666, -71.64060498896747 21.41874386965982, -72.19626786926261 21.172768395706854 M-72.19626786926261 21.172768395706854 C-72.63092276274168 20.946009216188575, -73.06557765622074 20.719250036670292, -73.53186247209253 20.475989546899655 M-72.19626786926261 21.172768395706854 C-72.69977400732922 20.910089565988578, -73.20328014539582 20.6474107362703, -73.53186247209253 20.475989546899655 M-73.53186247209253 20.475989546899655 C-73.91076325644487 20.2462976647571, -74.2896640407972 20.016605782614548, -74.82007017844788 19.695070464958263 M-73.53186247209253 20.475989546899655 C-73.87640172120345 20.267127829351242, -74.22094097031437 20.058266111802833, -74.82007017844788 19.695070464958263 M-74.82007017844788 19.695070464958263 C-75.30032207784359 19.360067529709468, -75.7805739772393 19.02506459446067, -76.05559746654357 18.83322011389698 M-74.82007017844788 19.695070464958263 C-75.23445600873849 19.40601284822101, -75.6488418390291 19.116955231483754, -76.05559746654357 18.83322011389698 M-76.05559746654357 18.83322011389698 C-76.46767562971289 18.504598744629916, -76.8797537928822 18.175977375362848, -77.23336728973302 17.893980021674665 M-76.05559746654357 18.83322011389698 C-76.31297956798657 18.627964737221564, -76.57036166942956 18.422709360546143, -77.23336728973302 17.893980021674665 M-77.23336728973302 17.893980021674665 C-77.55280944600726 17.603871107322707, -77.87225160228148 17.313762192970753, -78.34853993918192 16.88120972729661 M-77.23336728973302 17.893980021674665 C-77.60070775617702 17.56037112934637, -77.96804822262102 17.22676223701807, -78.34853993918192 16.88120972729661 M-78.34853993918192 16.88120972729661 C-78.63807549742296 16.582240492101317, -78.927611055664 16.283271256906026, -79.39653293126992 15.799070921140945 M-78.34853993918192 16.88120972729661 C-78.61604001285208 16.604993939067676, -78.88354008652225 16.32877815083874, -79.39653293126992 15.799070921140945 M-79.39653293126992 15.799070921140945 C-79.61268913836518 15.545161540650229, -79.82884534546045 15.29125216015951, -80.3730398379987 14.652010343680242 M-79.39653293126992 15.799070921140945 C-79.77864742045513 15.350217499213615, -80.16076190964034 14.901364077286285, -80.3730398379987 14.652010343680242 M-80.3730398379987 14.652010343680242 C-80.63312785085728 14.303516100955164, -80.89321586371585 13.955021858230086, -81.27404798302845 13.444741512870994 M-80.3730398379987 14.652010343680242 C-80.68322922183559 14.236384828173017, -80.99341860567247 13.820759312665794, -81.27404798302845 13.444741512870994 M-81.27404798302845 13.444741512870994 C-81.47066732932741 13.142681397268648, -81.66728667562639 12.840621281666301, -82.09585493062562 12.182225355297351 M-81.27404798302845 13.444741512870994 C-81.57828102092768 12.977357868648303, -81.88251405882691 12.509974224425612, -82.09585493062562 12.182225355297351 M-82.09585493062562 12.182225355297351 C-82.34187874280572 11.745385164159185, -82.58790255498582 11.308544973021018, -82.8350836997655 10.869649820659632 M-82.09585493062562 12.182225355297351 C-82.35855490092789 11.715774956769154, -82.62125487123015 11.249324558240959, -82.8350836997655 10.869649820659632 M-82.8350836997655 10.869649820659632 C-82.97894330902992 10.570922263919536, -83.12280291829434 10.272194707179441, -83.4886966408716 9.512408563376264 M-82.8350836997655 10.869649820659632 C-82.99405354398718 10.539545537723546, -83.15302338820887 10.209441254787462, -83.4886966408716 9.512408563376264 M-83.4886966408716 9.512408563376264 C-83.62371230521215 9.178917262104806, -83.7587279695527 8.845425960833348, -84.05400791816936 8.116078778900743 M-83.4886966408716 9.512408563376264 C-83.67297446337749 9.057238779017366, -83.85725228588339 8.602068994658469, -84.05400791816936 8.116078778900743 M-84.05400791816936 8.116078778900743 C-84.15667949607436 7.806848344745292, -84.25935107397936 7.497617910589842, -84.52869454636152 6.686398285829262 M-84.05400791816936 8.116078778900743 C-84.18854432838111 7.710876546808918, -84.32308073859286 7.305674314717094, -84.52869454636152 6.686398285829262 M-84.52869454636152 6.686398285829262 C-84.62024196056603 6.337288318567171, -84.71178937477053 5.988178351305081, -84.91080593627285 5.229241947973394 M-84.52869454636152 6.686398285829262 C-84.63781052825313 6.270291755710848, -84.74692651014475 5.854185225592434, -84.91080593627285 5.229241947973394 M-84.91080593627285 5.229241947973394 C-84.98396314501105 4.853595142884292, -85.05712035374924 4.4779483377951905, -85.19877191023957 3.7505975332844232 M-84.91080593627285 5.229241947973394 C-84.9816196365291 4.865628563638349, -85.05243333678537 4.502015179303306, -85.19877191023957 3.7505975332844232 M-85.19877191023957 3.7505975332844232 C-85.26974492460062 3.200144849107062, -85.34071793896167 2.649692164929701, -85.39140915430616 2.256541108830539 M-85.19877191023957 3.7505975332844232 C-85.26112448937589 3.267003242412589, -85.3234770685122 2.783408951540755, -85.39140915430616 2.256541108830539 M-85.39140915430616 2.256541108830539 C-85.4283015111778 1.6819128715801688, -85.46519386804945 1.1072846343297984, -85.48792608071616 0.7532120729338994 M-85.39140915430616 2.256541108830539 C-85.41121271991183 1.9480845893717371, -85.4310162855175 1.639628069912935, -85.48792608071616 0.7532120729338994 M-85.48792608071616 0.7532120729338994 C-85.48792608071616 0.2030839524433692, -85.48792608071616 -0.347044168047161, -85.48792608071616 -0.7532120729338879 M-85.48792608071616 0.7532120729338994 C-85.48792608071616 0.22720445608746442, -85.48792608071616 -0.2988031607589705, -85.48792608071616 -0.7532120729338879 M-85.48792608071616 -0.7532120729338879 C-85.45899008595607 -1.2039135480368746, -85.43005409119598 -1.6546150231398609, -85.39140915430616 -2.2565411088305067 M-85.48792608071616 -0.7532120729338879 C-85.45010934225444 -1.3422382995972222, -85.41229260379271 -1.9312645262605566, -85.39140915430616 -2.2565411088305067 M-85.39140915430616 -2.2565411088305067 C-85.33710740328341 -2.6776947666692807, -85.28280565226068 -3.0988484245080548, -85.19877191023957 -3.750597533284412 M-85.39140915430616 -2.2565411088305067 C-85.35040326552999 -2.5745746846498645, -85.30939737675381 -2.8926082604692223, -85.19877191023957 -3.750597533284412 M-85.19877191023957 -3.750597533284412 C-85.13686321309126 -4.068485608733186, -85.07495451594296 -4.386373684181961, -84.91080593627285 -5.229241947973383 M-85.19877191023957 -3.750597533284412 C-85.10489793922903 -4.232620534152734, -85.0110239682185 -4.7146435350210565, -84.91080593627285 -5.229241947973383 M-84.91080593627285 -5.229241947973383 C-84.78276127213988 -5.717531747220886, -84.65471660800691 -6.205821546468388, -84.52869454636152 -6.6863982858292506 M-84.91080593627285 -5.229241947973383 C-84.77916743428312 -5.731236608547849, -84.64752893229341 -6.233231269122315, -84.52869454636152 -6.6863982858292506 M-84.52869454636152 -6.6863982858292506 C-84.41662589894845 -7.023931196123308, -84.30455725153539 -7.3614641064173645, -84.05400791816938 -8.116078778900713 M-84.52869454636152 -6.6863982858292506 C-84.43126981704401 -6.9798260480109775, -84.3338450877265 -7.273253810192705, -84.05400791816938 -8.116078778900713 M-84.05400791816938 -8.116078778900713 C-83.8897898499347 -8.521700582380712, -83.72557178170004 -8.92732238586071, -83.4886966408716 -9.512408563376251 M-84.05400791816938 -8.116078778900713 C-83.87942705644893 -8.54729688264155, -83.70484619472849 -8.978514986382386, -83.4886966408716 -9.512408563376251 M-83.4886966408716 -9.512408563376251 C-83.28033681295776 -9.94507220422547, -83.07197698504392 -10.377735845074689, -82.8350836997655 -10.869649820659621 M-83.4886966408716 -9.512408563376251 C-83.32113306344647 -9.860357917185741, -83.15356948602134 -10.20830727099523, -82.8350836997655 -10.869649820659621 M-82.8350836997655 -10.869649820659621 C-82.63781072210399 -11.21992796855276, -82.44053774444248 -11.570206116445897, -82.09585493062563 -12.182225355297344 M-82.8350836997655 -10.869649820659621 C-82.57112512130752 -11.338335005416221, -82.30716654284952 -11.807020190172821, -82.09585493062563 -12.182225355297344 M-82.09585493062563 -12.182225355297344 C-81.87538363348727 -12.520928472534608, -81.65491233634891 -12.859631589771874, -81.27404798302847 -13.444741512870987 M-82.09585493062563 -12.182225355297344 C-81.843880593093 -12.569325602331018, -81.59190625556039 -12.956425849364692, -81.27404798302847 -13.444741512870987 M-81.27404798302847 -13.444741512870987 C-81.02688867141323 -13.775912473758893, -80.77972935979801 -14.1070834346468, -80.3730398379987 -14.652010343680235 M-81.27404798302847 -13.444741512870987 C-81.04615507634378 -13.750097246357567, -80.81826216965909 -14.055452979844148, -80.3730398379987 -14.652010343680235 M-80.3730398379987 -14.652010343680235 C-80.11392066670575 -14.95638646657946, -79.85480149541281 -15.260762589478686, -79.39653293126992 -15.799070921140936 M-80.3730398379987 -14.652010343680235 C-80.12033713978578 -14.948849312192007, -79.86763444157286 -15.245688280703778, -79.39653293126992 -15.799070921140936 M-79.39653293126992 -15.799070921140936 C-79.04493189240202 -16.162127860754186, -78.69333085353412 -16.525184800367434, -78.34853993918195 -16.881209727296586 M-79.39653293126992 -15.799070921140936 C-79.1225538654957 -16.081976800652445, -78.8485747997215 -16.36488268016395, -78.34853993918195 -16.881209727296586 M-78.34853993918195 -16.881209727296586 C-78.04389200655537 -17.15788291916546, -77.73924407392877 -17.434556111034333, -77.23336728973305 -17.893980021674643 M-78.34853993918195 -16.881209727296586 C-78.08773473065193 -17.11806611715587, -77.8269295221219 -17.354922507015157, -77.23336728973305 -17.893980021674643 M-77.23336728973305 -17.893980021674643 C-76.8788250526459 -18.176718020986492, -76.52428281555872 -18.459456020298344, -76.05559746654359 -18.833220113896974 M-77.23336728973305 -17.893980021674643 C-76.87552875507772 -18.179346730578935, -76.51769022042241 -18.46471343948323, -76.05559746654359 -18.833220113896974 M-76.05559746654359 -18.833220113896974 C-75.58459808021284 -19.16176889656648, -75.11359869388211 -19.490317679235982, -74.8200701784479 -19.695070464958246 M-76.05559746654359 -18.833220113896974 C-75.66921385054555 -19.10274459814005, -75.2828302345475 -19.372269082383124, -74.8200701784479 -19.695070464958246 M-74.8200701784479 -19.695070464958246 C-74.45762261540435 -19.914788307653552, -74.0951750523608 -20.13450615034886, -73.53186247209254 -20.475989546899648 M-74.8200701784479 -19.695070464958246 C-74.36736129416423 -19.969505251023715, -73.91465240988056 -20.24394003708918, -73.53186247209254 -20.475989546899648 M-73.53186247209254 -20.475989546899648 C-73.19616988922422 -20.651120152360686, -72.86047730635592 -20.826250757821725, -72.19626786926263 -21.172768395706846 M-73.53186247209254 -20.475989546899648 C-73.02829738147494 -20.73869913212602, -72.52473229085733 -21.00140871735239, -72.19626786926263 -21.172768395706846 M-72.19626786926263 -21.172768395706846 C-71.68717413882096 -21.39812908844442, -71.1780804083793 -21.623489781182, -70.8187746146653 -21.782543797631504 M-72.19626786926263 -21.172768395706846 C-71.83449161860756 -21.332916010160666, -71.47271536795249 -21.493063624614486, -70.8187746146653 -21.782543797631504 M-70.8187746146653 -21.782543797631504 C-70.51362445287494 -21.894841877947535, -70.20847429108456 -22.00713995826357, -69.4050431235551 -22.302810054750708 M-70.8187746146653 -21.782543797631504 C-70.48207294296219 -21.906453125254387, -70.14537127125907 -22.030362452877267, -69.4050431235551 -22.302810054750708 M-69.4050431235551 -22.302810054750708 C-68.94449769418742 -22.439497520734747, -68.48395226481973 -22.576184986718786, -67.96088272187345 -22.731429281417185 M-69.4050431235551 -22.302810054750708 C-68.83116980144382 -22.473132644430798, -68.25729647933255 -22.643455234110885, -67.96088272187345 -22.731429281417185 M-67.96088272187345 -22.731429281417185 C-67.52230000235296 -22.83153292512802, -67.0837172828325 -22.931636568838854, -66.49222777448226 -23.066640189290034 M-67.96088272187345 -22.731429281417185 C-67.47270418311814 -22.842852847225405, -66.98452564436283 -22.95427641303362, -66.49222777448226 -23.066640189290034 M-66.49222777448226 -23.066640189290034 C-66.01500376577359 -23.143794066090592, -65.5377797570649 -23.22094794289115, -65.0051132995859 -23.30706532484628 M-66.49222777448226 -23.066640189290034 C-66.07954060486337 -23.133360250437217, -65.66685343524446 -23.2000803115844, -65.0051132995859 -23.30706532484628 M-65.0051132995859 -23.30706532484628 C-64.67286532064797 -23.339116887787767, -64.34061734171003 -23.371168450729254, -63.505650169546755 -23.451716729632903 M-65.0051132995859 -23.30706532484628 C-64.6881606044308 -23.337641370156508, -64.3712079092757 -23.368217415466734, -63.505650169546755 -23.451716729632903 M-63.505650169546755 -23.451716729632903 C-62.92346980977613 -23.47038612062542, -62.34128945000551 -23.489055511617938, -62.00000000000001 -23.5 M-63.505650169546755 -23.451716729632903 C-63.020476556311884 -23.467275303076196, -62.53530294307702 -23.48283387651949, -62.00000000000001 -23.5 M-62.00000000000001 -23.5 C-62.00000000000001 -23.5, -62 -23.5, -62 -23.5 M-62.00000000000001 -23.5 C-62.00000000000001 -23.5, -62 -23.5, -62 -23.5" stroke="#B7791F" stroke-width="1.5" fill="none" stroke-dasharray="0 0" style="fill:#FFF3D6 !important;stroke:#B7791F !important;stroke-width:1.5px !important"/></g><g class="label" style="color:#7B4B12 !important" transform="translate(-75.625, -19.5)"><rect/><foreignObject width="151.25" height="39"><div style="color: rgb(123, 75, 18) !important; display: table-cell; white-space: nowrap; line-height: 1.5; max-width: 200px; text-align: center;" xmlns="http://www.w3.org/1999/xhtml"><span style="color:#7B4B12 !important" class="nodeLabel"><p>Ambientes dos clientes<br />Neoenergia · VLI · ...</p></span></div></foreignObject></g></g><g class="node default io" id="my-svg-flowchart-DV-7" data-look="classic" transform="translate(1134.1796875, 106.5)"><rect class="basic label-container" style="fill:#EDF1F5 !important;stroke:#5A6B7B !important" x="-106.6796875" y="-17.75" width="213.359375" height="35.5"/><g class="label" style="color:#2D3B48 !important" transform="translate(-90.6796875, -9.75)"><rect/><foreignObject width="181.359375" height="19.5"><div style="color: rgb(45, 59, 72) !important; display: table-cell; white-space: nowrap; line-height: 1.5; max-width: 200px; text-align: center;" xmlns="http://www.w3.org/1999/xhtml"><span style="color:#2D3B48 !important" class="nodeLabel"><p>develop · stage · prerelease</p></span></div></foreignObject></g></g></g></g></g><defs><filter id="my-svg-drop-shadow" height="130%" width="130%"><feDropShadow dx="4" dy="4" stdDeviation="0" flood-opacity="0.06" flood-color="#000000"/></filter></defs><defs><filter id="my-svg-drop-shadow-small" height="150%" width="150%"><feDropShadow dx="2" dy="2" stdDeviation="0" flood-opacity="0.06" flood-color="#000000"/></filter></defs><linearGradient id="my-svg-gradient" gradientUnits="objectBoundingBox" x1="0%" y1="0%" x2="100%" y2="0%"><stop offset="0%" stop-color="#5A6B7B" stop-opacity="1"/><stop offset="100%" stop-color="hsl(90, 0%, 84.5098039216%)" stop-opacity="1"/></linearGradient></svg>